<svg xmlns="http://www.w3.org/2000/svg" width="22" height="22" viewBox="0 0 30 30">
  <defs>
    <style>
      .cls-1 {
      fill-opacity: 0;
      stroke: #000;
      stroke-linejoin: round;
      stroke-width: 1px;
      fill-rule: evenodd;
      opacity: 0.2;
    </style>
  </defs>
  <path class="cls-1" d="M1639,29h4v4h-4V29Zm6,0h4v4h-4V29Zm6,0h4v4h-4V29Zm6,0h4v4h-4V29Zm-18,6h4v4h-4V35Zm6,0h4v4h-4V35Zm6,0h4v4h-4V35Zm6,0h4v4h-4V35Zm-18,6h4v4h-4V41Zm6,0h4v4h-4V41Zm6,0h4v4h-4V41Zm6,0h4v4h-4V41Zm-18,6h4v4h-4V47Zm6,0h4v4h-4V47Zm6,0h4v4h-4V47Zm6,0h4v4h-4V47Z" transform="translate(-1639 -29)"/>
</svg>
